<?xml version="1.0" encoding="UTF-8"?>
<svg width="48px" height="48px" viewBox="0 0 48 48" version="1.1" xmlns="http://www.w3.org/2000/svg" xmlns:xlink="http://www.w3.org/1999/xlink">
    <title>IG</title>
    <defs>
        <filter x="-1.2%" y="-15.4%" width="102.4%" height="130.8%" filterUnits="objectBoundingBox" id="filter-1">
            <feOffset dx="0" dy="5" in="SourceAlpha" result="shadowOffsetOuter1"></feOffset>
            <feGaussianBlur stdDeviation="2.5" in="shadowOffsetOuter1" result="shadowBlurOuter1"></feGaussianBlur>
            <feColorMatrix values="0 0 0 0 0   0 0 0 0 0   0 0 0 0 0  0 0 0 0.5 0" type="matrix" in="shadowBlurOuter1" result="shadowMatrixOuter1"></feColorMatrix>
            <feMerge>
                <feMergeNode in="shadowMatrixOuter1"></feMergeNode>
                <feMergeNode in="SourceGraphic"></feMergeNode>
            </feMerge>
        </filter>
        <polygon id="path-2" points="0 0 0 17.6805557 17.6272364 17.6805557 17.6272364 0 3.85733869e-21 0"></polygon>
    </defs>
    <g id="Page-1" stroke="none" stroke-width="1" fill="none" fill-rule="evenodd">
        <g id="Top-Bar" transform="translate(-1557.000000, -40.000000)" filter="url(#filter-1)">
            <g id="Nav" transform="translate(1127.000000, 46.000000)">
                <g id="Icon/Twitter-Copy" transform="translate(436.000000, 0.000000)">
                    <g id="Instagram" transform="translate(9.000000, 9.019356)">
                        <g id="Group-3">
                            <mask id="mask-3" fill="white">
                                <use xlink:href="#path-2"></use>
                            </mask>
                            <g id="Clip-2"></g>
                            <path d="M8.8136514,0 C6.41998577,0 6.11989999,0.0101822071 5.17979564,0.053194895 C4.24168364,0.0961124221 3.60100096,0.245610061 3.04039176,0.46409929 C2.4608078,0.690011062 1.96926672,0.992241807 1.47933848,1.48374741 C0.98931538,1.97525302 0.687996235,2.46828119 0.462765867,3.04952344 C0.24484078,3.61182869 0.0958889356,4.25454483 0.0530059843,5.19549496 C0.010123033,6.13834831 -2.84621356e-05,6.43943712 -2.84621356e-05,8.84034446 C-2.84621356e-05,11.2411566 0.010123033,11.5422454 0.0530059843,12.4850988 C0.0958889356,13.4260489 0.24484078,14.0686699 0.462765867,14.6309751 C0.687996235,15.2123126 0.98931538,15.7053407 1.47933848,16.1968463 C1.96926672,16.6882568 2.4608078,16.9905827 3.04039176,17.2164945 C3.60100096,17.4349837 4.24168364,17.5844813 5.17979564,17.6273989 C6.11989999,17.6704115 6.41998577,17.6805938 8.8136514,17.6805938 C11.207317,17.6805938 11.5074028,17.6704115 12.4475072,17.6273989 C13.3856191,17.5844813 14.0263018,17.4349837 14.586911,17.2164945 C15.166495,16.9905827 15.6580361,16.6882568 16.1479643,16.1968463 C16.6379874,15.7053407 16.9393066,15.2123126 17.1645369,14.6309751 C17.382462,14.0686699 17.5314139,13.4260489 17.5742968,12.4850988 C17.6171798,11.5422454 17.6272364,11.2411566 17.6272364,8.84034446 C17.6272364,6.43943712 17.6171798,6.13834831 17.5742968,5.19549496 C17.5314139,4.25454483 17.382462,3.61182869 17.1645369,3.04952344 C16.9393066,2.46828119 16.6379874,1.97525302 16.1479643,1.48374741 C15.6580361,0.992241807 15.166495,0.690011062 14.586911,0.46409929 C14.0263018,0.245610061 13.3856191,0.0961124221 12.4475072,0.053194895 C11.5074028,0.0101822071 11.207317,0 8.8136514,0 M8.8136514,1.5928017 C11.1669957,1.5928017 11.4457348,1.60184198 12.3751185,1.64437887 C13.2343903,1.68368028 13.7010745,1.82775375 14.0116913,1.94879831 C14.423064,2.10914428 14.7166984,2.300703 15.025133,2.61007081 C15.3334729,2.91943861 15.5245487,3.21386617 15.6843161,3.62657862 C15.8050904,3.93803997 15.9486345,4.40613601 15.9878174,5.26810266 C16.0302259,6.20020284 16.0392389,6.47988047 16.0392389,8.84034446 C16.0392389,11.2007133 16.0302259,11.4803909 15.9878174,12.4124911 C15.9486345,13.2744577 15.8050904,13.7425538 15.6843161,14.0540151 C15.5245487,14.4667276 15.3334729,14.7611551 15.025133,15.0705229 C14.7166984,15.3798908 14.423064,15.5714495 14.0116913,15.7317954 C13.7010745,15.85284 13.2343903,15.9969135 12.3751185,16.0362149 C11.4458297,16.0787518 11.1671854,16.0876969 8.8136514,16.0876969 C6.46011738,16.0876969 6.18147307,16.0787518 5.25218434,16.0362149 C4.39291246,15.9969135 3.92613343,15.85284 3.61561153,15.7317954 C3.20423879,15.5714495 2.91060442,15.3798908 2.60216974,15.0705229 C2.29382994,14.7611551 2.10275413,14.4667276 1.9428918,14.0540151 C1.82221235,13.7425538 1.67866831,13.2744577 1.63948544,12.4124911 C1.59707685,11.4803909 1.58806384,11.2007133 1.58806384,8.84034446 C1.58806384,6.47988047 1.59707685,6.20020284 1.63948544,5.26810266 C1.67866831,4.40613601 1.82221235,3.93803997 1.9428918,3.62657862 C2.10275413,3.21386617 2.29382994,2.91943861 2.60216974,2.61007081 C2.91060442,2.300703 3.20423879,2.10914428 3.61561153,1.94879831 C3.92613343,1.82775375 4.39291246,1.68368028 5.25218434,1.64437887 C6.18156795,1.60184198 6.46030713,1.5928017 8.8136514,1.5928017" id="Fill-1" fill="#FFFFFF" mask="url(#mask-3)"></path>
                        </g>
                        <path d="M9.17279959,12.1306211 C7.52859858,12.1306211 6.19570168,10.7977102 6.19570168,9.15349196 C6.19570168,7.50927371 7.52859858,6.17636284 9.17279959,6.17636284 C10.8170006,6.17636284 12.1498975,7.50927371 12.1498975,9.15349196 C12.1498975,10.7977102 10.8170006,12.1306211 9.17279959,12.1306211 M9.17279959,4.56704409 C6.63987246,4.56704409 4.5863998,6.62044213 4.5863998,9.15349196 C4.5863998,11.6865418 6.63987246,13.7398437 9.17279959,13.7398437 C11.7057267,13.7398437 13.7591994,11.6865418 13.7591994,9.15349196 C13.7591994,6.62044213 11.7057267,4.56704409 9.17279959,4.56704409" id="Fill-4" fill="#FFFFFF"></path>
                        <path d="M14.4143994,4.2394441 C14.4143994,4.78224096 13.9743963,5.22224406 13.4315994,5.22224406 C12.8888907,5.22224406 12.4487994,4.78224096 12.4487994,4.2394441 C12.4487994,3.69664725 12.8888907,3.25664415 13.4315994,3.25664415 C13.9743963,3.25664415 14.4143994,3.69664725 14.4143994,4.2394441" id="Fill-6" fill="#FFFFFF"></path>
                    </g>
                </g>
            </g>
        </g>
    </g>
</svg>